<?xml version="1.0" encoding="utf-8"?>
<!-- Designed by Vexels.com - 2020 All Rights Reserved - https://vexels.com/terms-and-conditions/  -->
<svg version="1.1" id="Layer_1" xmlns="http://www.w3.org/2000/svg" xmlns:xlink="http://www.w3.org/1999/xlink" x="0px" y="0px"
	 viewBox="0 0 1200 1200" enable-background="new 0 0 1200 1200" xml:space="preserve">
<g>
	<polygon fill="none" points="764.441,257.753 764.442,257.752 764.441,257.752 	"/>
	<path fill="#F7F5E7" d="M216.23,690.935c-19.649-53.695-35.358-108.683-49.997-163.919c-1.486-5.555-5.069-0.219-5.983,1.372
		c-0.936,1.629,2.187,11.311,2.473,12.735c2.602,12.98,5.522,25.897,8.52,38.79c6.915,29.742,15.016,59.204,24.247,88.311
		c9.528,30.045,20.476,59.688,33.321,88.477c4.119,9.231,20.049,54.568,34.03,55.799c8.72,0.768-11.215-37.604-13.025-41.299
		C237.057,745.151,226.193,718.163,216.23,690.935z"/>
	<path fill="#277F8B" d="M394.831,645.421c-34.637,45.675-72.738,104.489-105.546,175.257
		c2.221-74.845-7.036-253.928-136.278-342.607c-5.356-3.675-53.825,260.879,123.823,370.643
		c-35.217,83.12-62.275,181.231-68.647,292.73c-0.255,4.465,3.157,8.287,7.62,8.544c0.158,0.01,0.313,0.013,0.47,0.013
		c4.258,0,7.827-3.326,8.074-7.633c12.517-219.054,106.441-385.576,183.028-486.698c83.158-109.796,164.449-168.428,165.258-169.007
		c0.513-0.367,0.955-0.791,1.355-1.245c-4.096-3.454-8.074-7.141-11.917-11.086C551.756,481.953,474.031,540.979,394.831,645.421z
		 M262.839,812.5c-13.981-1.231-29.912-46.568-34.03-55.799c-12.845-28.789-23.793-58.432-33.321-88.477
		c-9.231-29.107-17.331-58.569-24.247-88.311c-2.998-12.893-5.918-25.81-8.52-38.79c-0.285-1.424-3.409-11.105-2.473-12.735
		c0.915-1.591,4.497-6.927,5.983-1.372c14.638,55.237,30.348,110.224,49.997,163.919c9.964,27.228,20.827,54.216,33.585,80.267
		C251.624,774.897,271.56,813.268,262.839,812.5z"/>
	<path fill="#277F8B" d="M764.442,257.752c6.553-4.078,13.168-7.351,19.757-9.989c63.814-65.284,81.632-137.324,85.194-155.025
		c-4.261,1.632-9.003,1.848-13.393,0.474c-4.936,21.476-25.272,92.307-88.765,153.103
		C765.743,253.51,764.444,257.745,764.442,257.752L764.442,257.752z"/>
	<path fill="#277F8B" d="M1011.959,181.877c-33.701-3.238-130.581-5.905-199.69,58.205c7.604-1.186,14.98-1.665,21.987-1.656
		c64.694-49.322,150.072-46.091,178.155-43.415C1010.786,190.847,1010.931,186.324,1011.959,181.877z"/>
	<path fill="#F9A61A" d="M1055.502,180.375c-6.883-15.487-32.695-23.911-39.578-9.374c-1.603,3.384-3.092,7.102-3.965,10.877
		c-1.029,4.447-1.173,8.97,0.452,13.134c1.742,4.461,5.495,8.509,12.395,11.586c12.927,5.765,28.647-1.032,31.717-14.85
		C1057.33,188.118,1057.223,184.247,1055.502,180.375z"/>
	<path fill="#F9A61A" d="M869.393,92.737c4.512-1.728,8.478-5.022,10.857-9.729c5.535-10.951,8.612-25.433-8.987-31.299
		c-29.96-9.987-33.289,26.631-23.302,36.618c0.1,0.1,0.2,0.199,0.301,0.296c2.28,2.213,4.938,3.712,7.739,4.588
		C860.39,94.585,865.132,94.369,869.393,92.737z"/>
	<path fill="#F9A61A" d="M784.199,247.763c-6.589,2.638-13.204,5.912-19.757,9.989l-0.001,0.001l0-0.001
		c0.002-0.007,1.302-4.241,2.793-11.437c4.471-21.569,10.664-69.746-11.208-110.442c-4.148-7.719-13.721-10.679-21.701-7.061
		c-20.822,9.438-59.715,30.073-75.301,58.324c0,0-21.517-58.413-50.116-86.906c-7.948-7.919-21.239-6.04-26.698,3.762
		c-32.282,57.972-129.999,257.025-20.443,370.04c0.1,0.104,0.206,0.198,0.306,0.301c3.843,3.945,7.822,7.632,11.917,11.086
		c123.48,104.132,356.731-10.049,403.248-65.561c5.618-6.704,4.844-16.638-1.419-22.744c-15.292-14.907-50.83-40.066-112.08-33.261
		c0,0,35.969-47.959,30.237-103.353c-0.701-6.777-5.246-12.524-11.741-14.582c-10.249-3.248-27.519-7.465-47.978-7.49
		c-7.008-0.009-14.383,0.47-21.987,1.656C803.144,241.506,793.699,243.959,784.199,247.763z M745.477,309.77
		c0.759-1.194,12.097-13.017,8.957-3.408c-5.215,16.321-12.425,31.876-22.403,45.855c-4.355,6.102-32.752,43.922-39.874,32.536
		c-5.118-8.183,30.558-40.062,35.639-46.997C734.378,328.772,739.522,319.132,745.477,309.77z M682.271,290.416
		c9.619-22.628,18.285-45.732,25.67-69.189c3.417-10.852,6.505-21.801,9.148-32.868c0.134-0.562,1.227-9.558,2.377-10.534
		c1.555-1.32,6.79-4.387,6.039,1.101c-6.355,44.733-20.169,88.19-37.705,129.752c-9.353,22.168-19.687,43.972-31.798,64.78
		c-2.375,4.081-27.729,45.661-32.592,33.067c-3.424-8.868,24.587-45.022,28.865-52.924
		C663.382,333.085,673.149,311.875,682.271,290.416z M601.467,316.664c1.987-15.938,5.796-31.625,10.631-46.923
		c4.397-13.915,9.745-27.544,16.003-40.728c2.452-5.166,6.374-17.332,11.117-21.06c1.641-1.29,9.028-5.026,6.409,1.157
		c-12.415,29.065-22.642,59.34-28.503,90.445c-3.235,17.171-3.135,33.781-3.93,51.084c-0.399,8.683-0.759,18.133-8.699,10.81
		C595.406,353.066,600.183,326.963,601.467,316.664z M588.802,183.143c-16.272,44.524-25.78,90.29-24.684,137.936
		c0.585,25.431,3.622,50.822,9.33,75.618c1.319,5.728,12.746,42.302,3.326,41.99c-11.785-0.39-18.522-50.825-19.881-58.873
		c-4.648-27.53-6.405-55.622-4.283-83.493c2.002-26.302,6.889-52.166,15.145-77.228c3.136-9.519,6.668-18.869,10.699-28.045
		c0.858-1.954,2.986-9.351,4.668-10.235C584.891,179.884,590.701,177.899,588.802,183.143z M891.092,439.462
		c10.592-4.517,21.527-9.55,30.565-16.845c0.174-0.141,7.353-7.46,7.877-7.545c1.86-0.302,8.129-0.812,4.818,3.804
		c-12.57,18.109-36.063,28.179-55.668,36.432c-25.25,10.629-51.858,20.163-78.439,26.809c-26.161,6.542-53.061,10.363-79.902,12.726
		c-5.186,0.457-48.595,4.185-42.687-6.724c1.889-3.489,18.416-3.991,22.135-4.453c12.111-1.506,24.337-2.051,36.468-3.447
		c26.581-3.058,53.241-7.415,78.917-15.053C840.693,457.576,866.579,449.915,891.092,439.462z M764.016,435.195
		c1.464-6.325,16.24-7.62,20.811-9.164c8.597-2.903,16.74-6.797,24.251-11.895c7.447-5.055,14.089-11.136,20.327-17.603
		c2.574-2.669,8.395-12.463,11.867-13.264c0.52-0.12,9.795-4.494,5.754,2.688c-9.065,16.551-20.974,31.843-36.969,42.185
		C804.989,431.419,760.158,451.868,764.016,435.195z M845.778,280.181c0.868-1.688,3.216-9.276,5.019-10.156
		c1.689-0.824,7.709-2.757,5.615,2.482c-16.484,41.86-42.442,80.258-73.143,112.981c-35.027,37.333-81.034,58.184-129.579,72.114
		c-7.313,2.099-52.415,16.658-57.084,8.019c-3.844-7.113,39.637-16.654,45.125-18.15c48.335-13.176,94.928-32.161,131.051-67.897
		c20.358-20.139,38.262-42.816,53.932-66.761C833.617,302.265,840.012,291.393,845.778,280.181z"/>
	<path fill="#F7F5E7" d="M583.122,180.814c-1.683,0.885-3.81,8.281-4.668,10.235c-4.031,9.176-7.564,18.526-10.699,28.045
		c-8.256,25.062-13.142,50.926-15.145,77.228c-2.122,27.871-0.365,55.963,4.283,83.493c1.359,8.048,8.096,58.483,19.881,58.873
		c9.42,0.312-2.007-36.261-3.326-41.99c-5.708-24.796-8.745-50.187-9.33-75.618c-1.096-47.646,8.412-93.413,24.684-137.936
		C590.701,177.899,584.891,179.884,583.122,180.814z"/>
	<path fill="#F7F5E7" d="M641.73,447.47c-5.489,1.496-48.97,11.037-45.125,18.15c4.669,8.639,49.771-5.921,57.084-8.019
		c48.544-13.93,94.552-34.781,129.579-72.114c30.701-32.723,56.659-71.121,73.143-112.981c2.094-5.239-3.926-3.306-5.615-2.482
		c-1.803,0.88-4.151,8.469-5.019,10.156c-5.765,11.212-12.161,22.084-19.064,32.632c-15.67,23.945-33.574,46.622-53.932,66.761
		C736.658,415.309,690.065,434.294,641.73,447.47z"/>
	<path fill="#F7F5E7" d="M623.411,406.525c4.863,12.593,30.216-28.986,32.592-33.067c12.111-20.808,22.444-42.612,31.798-64.78
		c17.537-41.562,31.35-85.02,37.705-129.752c0.751-5.488-4.484-2.421-6.039-1.101c-1.151,0.977-2.243,9.972-2.377,10.534
		c-2.644,11.067-5.732,22.017-9.148,32.868c-7.385,23.456-16.051,46.561-25.67,69.189c-9.122,21.459-18.889,42.67-29.995,63.185
		C647.998,361.503,619.987,397.656,623.411,406.525z"/>
	<path fill="#F7F5E7" d="M613.194,350.64c0.795-17.302,0.694-33.913,3.93-51.084c5.861-31.105,16.088-61.38,28.503-90.445
		c2.619-6.184-4.767-2.448-6.409-1.157c-4.743,3.728-8.665,15.895-11.117,21.06c-6.258,13.184-11.606,26.813-16.003,40.728
		c-4.834,15.298-8.644,30.985-10.631,46.923c-1.284,10.299-6.061,36.402,3.028,44.786
		C612.434,368.773,612.795,359.323,613.194,350.64z"/>
	<path fill="#F7F5E7" d="M692.157,384.753c7.122,11.386,35.518-26.435,39.874-32.536c9.978-13.979,17.188-29.534,22.403-45.855
		c3.14-9.609-8.197,2.214-8.957,3.408c-5.955,9.361-11.099,19.001-17.681,27.986C722.716,344.691,687.039,376.57,692.157,384.753z"
		/>
	<path fill="#F7F5E7" d="M736.26,480.219c-12.131,1.396-24.357,1.941-36.468,3.447c-3.72,0.462-20.246,0.964-22.135,4.453
		c-5.908,10.909,37.501,7.18,42.687,6.724c26.841-2.363,53.741-6.184,79.902-12.726c26.581-6.647,53.189-16.18,78.439-26.809
		c19.605-8.253,43.098-18.324,55.668-36.432c3.311-4.616-2.958-4.106-4.818-3.804c-0.525,0.085-7.703,7.404-7.877,7.545
		c-9.038,7.295-19.973,12.328-30.565,16.845c-24.513,10.454-50.399,18.114-75.915,25.705
		C789.5,472.805,762.84,477.161,736.26,480.219z"/>
	<path fill="#F7F5E7" d="M810.057,428.143c15.995-10.342,27.904-25.634,36.969-42.185c4.04-7.182-5.234-2.808-5.754-2.688
		c-3.473,0.801-9.293,10.595-11.867,13.264c-6.237,6.467-12.88,12.548-20.327,17.603c-7.51,5.098-15.654,8.992-24.251,11.895
		c-4.571,1.544-19.347,2.839-20.811,9.164C760.158,451.868,804.989,431.419,810.057,428.143z"/>
</g>
</svg>
